<svg xmlns="http://www.w3.org/2000/svg" viewBox="-153.1 402.5 1077.2 158.7"><path fill="#39ADE5" d="M-9.5 522.8v-9.4c.1-.6.1-1.1 0-1.7v-1c0-.9-.2-1.6-.6-2.1-2.2-5.4-10.2-9-21.1-9-9.9 0-18.4 3.5-20.9 8.8-.5.5-.8 1.3-.8 2.3V545c0 7.1 8.9 12.1 21.7 12.1 12.8 0 22.7-5 21.7-12.1v-9.2c.1-.6.1-1.3 0-1.9v-9.4c0-.6.1-1.2 0-1.7zm-5.9 11.1c0 2-5.9 6.1-15.8 6.1-9.8 0-15.8-4-15.8-6.1v-2.5c3.8 2.2 9.3 3.5 15.8 3.5 6.3 0 11.8-1.5 15.8-3.6v2.6zm0-11.1c0 2-5.9 6.1-15.8 6.1-9.8 0-15.8-4-15.8-6.1v-2.5c3.8 2.2 9.3 3.5 15.8 3.5 6.3 0 11.8-1.5 15.8-3.6v2.6zm-15.8-17.2c9.8 0 15.8 3 15.8 6 0 2-5.9 6-15.8 6s-15.8-4-15.8-6.1c0-1.8 5.9-5.9 15.8-5.9zm0 45.4c-9.8 0-15.8-4-15.8-6.1v-2.5c3.8 2.2 9.3 3.5 15.8 3.5 6.3 0 11.8-1.2 15.8-3.3v2.3c0 2.1-6 6.1-15.8 6.1zm-28.6-96.8c0-.7-.1-1.3-.4-1.8-1.6-6.1-11-10.3-21.6-10.3-11.6 0-21.3 5-21.3 12.1V545c0 7.1 8.9 12.1 21.7 12.1s22.7-5 21.7-12.1v-90.8zm-5.9 12.1c0 2-5.9 6.1-15.8 6.1s-15.8-4-15.8-6.1v-3.4c3.8 2.2 9.1 3.4 15.4 3.4 6.6 0 12.2-1.4 16.1-3.7v3.7zm-15.7 12.1c6.5 0 12-1.6 15.8-3.9v2.9c0 2-5.9 6.1-15.8 6.1s-15.8-4-15.8-6.1v-2.5c3.8 2.2 9.3 3.5 15.8 3.5zm0 11.1c6.7 0 12.1-1.7 15.8-4.1v3.1c0 2-5.9 6.1-15.8 6.1s-15.8-4-15.8-6.1V486c3.8 2.2 9.3 3.5 15.8 3.5zm0 11.1c6.4 0 11.9-1.3 15.8-3.4v2.4c0 2-5.9 6.1-15.8 6.1s-15.8-4-15.8-6.1v-2.5c3.8 2.2 9.3 3.5 15.8 3.5zm0 11.1c6.6 0 12-1.3 15.8-3.6v2.6c0 2-5.9 6.1-15.8 6.1s-15.8-4-15.8-6.1v-2.5c3.8 2.2 9.3 3.5 15.8 3.5zm0 11.1c6.5 0 12-1.3 15.8-3.5v3.5c0 2-5.9 6.1-15.8 6.1s-15.8-4-15.8-6.1v-3.5c3.8 2.2 9.3 3.5 15.8 3.5zm-15.8 8.6c3.8 2.2 9.3 3.5 15.8 3.5s12-1.6 15.8-3.9v2.9c0 2-5.9 6.1-15.8 6.1s-15.8-4-15.8-6.1v-2.5zm15.4-83.2c9.7 0 15.5 4 15.5 6.1s-5.8 6.1-15.5 6.1c-9 0-14.6-3.5-15.4-5.6v-.9c.6-2.2 6.3-5.7 15.4-5.7zm.4 102.8c-9.9 0-15.8-4-15.8-6.1v-2.5c3.8 2.2 9.3 3.5 15.8 3.5s12-1.3 15.8-3.5v2.5c-.1 2.1-6 6.1-15.8 6.1zm-27.6-40.3v-22.2c0-7.1-8.9-12.1-21.7-12.1-11.8 0-21.7 5-21.7 12.1V545c0 7.1 8.9 12.1 21.7 12.1s22.7-5 21.7-12.1v-9.2c.1-.6.1-1.3 0-1.9v-9.4c.1-.6.1-1.1 0-1.7v-10.2c.1-.6.1-1.3 0-1.9zm-5.9 23.2c0 2-5.9 6.1-15.8 6.1s-15.8-4-15.8-6.1v-2.5c3.8 2.2 9.3 3.5 15.8 3.5 6.3 0 11.8-1.5 15.8-3.6v2.6zm0-34.3c0 2-5.9 6.1-15.8 6.1s-15.8-4-15.8-6.1v-2.5c3.8 2.2 9.3 3.5 15.8 3.5s11.9-1.3 15.8-3.5v2.5zm-15.8 12.1c6.7 0 12.1-1.4 15.8-3.7v2.7c0 2-5.9 6.1-15.8 6.1s-15.8-4-15.8-6.1v-2.5c3.9 2.2 9.3 3.5 15.8 3.5zm15.8 11.1c0 2-5.9 6.1-15.8 6.1s-15.8-4-15.8-6.1v-3.5c3.8 2.2 9.3 3.5 15.8 3.5 6.3 0 11.8-1.2 15.8-3.3v3.3zm-15.8-40.3c9.9 0 15.8 4 15.8 6.1 0 2-5.9 6.1-15.8 6.1s-15.8-4-15.8-6.1c0-2.1 6-6.1 15.8-6.1zm0 68.5c-9.9 0-15.8-4-15.8-6.1v-2.5c3.8 2.2 9.3 3.5 15.8 3.5 6.3 0 11.8-1.2 15.8-3.3v2.3c0 2.1-5.9 6.1-15.8 6.1zm42.4-140.1c0-1 0-2 1-2l5.9-4s1-1 2-1 3 1 3 3V433c0 1-1 3-3 3-1 0-3-1-3-3v-21.2l-3 1h-1c-1 .1-1.9-.9-1.9-1.9zm-37.5 37.3c0-3-2-5-4.9-5-3 0-3.9 2-4.9 3 0 1-1 1-2 1s-2-1-2-2v-1c1-2 3.9-5 8.9-5 5.9 0 9.9 4 9.9 9.1 0 9.1-15.8 13.1-15.8 17.1h13.8c1 0 2 1 2 2s-1 2-2 2h-16.7c-1 0-2-1-2-2 0-10.2 15.7-11.2 15.7-19.2zm83.8 39.3v-1c0-1 1-2 2-2s1 0 2 1c2 2 3 3 5.9 3 3.9 0 5.9-2 5.9-5s-1-5-4.9-5h-3c-1 0-2-1-2-2s0-1 1-2l5.9-7.1h-8.9v-1c-1 0-2-1-2-2s1-2 2-2h13.8c1 0 2 1 2 2 0 0 0 1-1 2l-5.9 6.1c5.9 1 7.9 5 7.9 10.1 0 6.1-3.9 10.1-10.8 10.1-5-.2-8-2.2-9.9-5.2z"/><path fill="#050607" d="M79.8 456.9V514H63.9v-57.1H42.4v-13.5h59v13.5H79.8zm76.8 29.9c0 16.6-11.7 27.8-29.1 27.8-17.5 0-29.2-11.2-29.2-27.8 0-16.7 11.7-27.7 29.2-27.7 17.4.1 29.1 11.1 29.1 27.7zm-42.6.2c0 8.9 5.5 14.9 13.5 14.9S141 495.8 141 487s-5.6-14.9-13.5-14.9c-8 0-13.5 6.1-13.5 14.9zm111.7.1c0 16.5-10 27.5-25.2 27.5-7.6 0-13.5-3-17.5-8.5v27.5h-15.5v-73.9H183v8c3.8-5.5 9.8-8.5 17.2-8.5 15.2 0 25.5 11.2 25.5 27.9zm-15.8-.5c0-8.7-5.5-14.9-13.4-14.9s-13.5 6.2-13.5 14.9c0 9 5.6 15 13.5 15s13.4-6.1 13.4-15zm58.6 7.2h-16.2V514h-15.9v-70.7H267c18.5 0 29 8.9 29 24.5 0 10.9-4.6 18.8-13.2 22.8l15 23.3h-18.1l-11.2-20.1zm-1.5-13.3c8.8 0 13.8-4 13.8-12.1 0-7.9-5-11.8-13.8-11.8h-14.7v23.9H267zm73.6 27.1c-3.6 4.5-9.5 7.1-17.1 7.1-11.6 0-18.7-7.1-18.7-17 0-10.2 7.4-16.3 20.7-16.4h14.9v-1c0-5.8-3.8-9.1-11.3-9.1-4.8 0-10.5 1.6-16.2 4.7l-4.8-10.7c8.1-4 15-6.3 24.5-6.3 14.5 0 22.9 7.3 23 19.5l.1 35.4h-15.2v-6.2zm-.1-12.2v-4.8h-12.2c-6 0-8.9 1.8-8.9 6.2 0 4.1 3.2 6.9 8.5 6.9 6.5-.1 11.6-3.6 12.6-8.3zm62.3 15.6c-4 2.3-9.1 3.7-14.1 3.7-9.7 0-17.1-5.6-17.1-16.8v-25.1H364v-10.7h7.6v-14.9H387v14.9h14.7v10.8H387v22.4c0 4.5 1.9 6.4 5.2 6.3 2 0 4.4-.7 7.3-2l3.3 11.4zm59-19.4h-39c1.8 6.9 7.1 10.9 14 10.9 5.1 0 10-2 13.7-5.8l8.2 8.3c-5.4 6.1-13.4 9.6-23.2 9.6-17.4 0-28.4-11.1-28.4-27.6 0-16.8 11.4-27.9 28-27.9 19.1.1 28 12.7 26.7 32.5zm-14.5-9.2c-.2-7.2-4.8-11.8-12-11.8-6.9 0-11.5 4.6-12.7 11.8h24.7zm78.4 31.6h-15.4v-8c-3.8 5.6-9.7 8.6-17.2 8.6-15.4 0-25.6-11.2-25.6-28 0-16.6 10.1-27.6 25.2-27.6 7.7 0 13.6 3 17.6 8.6V439h15.4v75zm-15.5-27c0-8.9-5.6-15-13.5-15-8.1 0-13.6 6.3-13.7 15 .1 8.9 5.6 15 13.7 15 8 .1 13.5-6.1 13.5-15z"/><path fill="#3CACE2" d="M602 454.5l-9.3 11.3c-4.8-5.6-11.8-9.2-18.4-9.2-12.1 0-21.5 9.4-21.5 21.7 0 12.3 9.4 21.8 21.5 21.8 6.4 0 13.3-3.2 18.4-8.3l9.4 10.2c-7.5 7.7-18.3 12.6-28.6 12.6-21.1 0-37-15.6-37-36.1 0-20.4 16.3-35.7 37.6-35.7 10.2 0 20.9 4.6 27.9 11.7zm40.4 53.1c-3.6 4.5-9.5 7.1-17.1 7.1-11.6 0-18.7-7.1-18.7-17 0-10.2 7.4-16.3 20.7-16.4h14.9v-1c0-5.8-3.8-9.1-11.3-9.1-4.8 0-10.5 1.6-16.2 4.7l-4.8-10.7c8.1-4 15-6.3 24.5-6.3 14.5 0 22.9 7.3 23 19.5l.1 35.4h-15.2v-6.2zm-.1-12.2v-4.8h-12.2c-6 0-8.9 1.8-8.9 6.2 0 4.1 3.2 6.9 8.5 6.9 6.5-.1 11.7-3.6 12.6-8.3zm68.3-30.4l-5.3 10.6c-6-3.3-12-5.2-16.6-5.2-3.6 0-6.3 1.2-6.3 4 0 8.2 28.7 4 28.6 23.2 0 11.1-9.8 17-22.1 17-8.8 0-17.4-2.6-23.5-7.6l5-10.5c5.7 4.3 12.9 6.8 18.9 6.8 3.9 0 6.9-1.3 6.9-4.2 0-8.7-28.2-4-28.2-23.1 0-11.2 9.6-17 21.4-17 7.5 0 15.1 2.2 21.2 6zm27-20.8c0 5-3.4 8.7-8.4 8.7-4.9 0-8.4-3.6-8.4-8.7 0-5 3.4-8.7 8.4-8.7 4.9.1 8.4 3.7 8.4 8.7zM721.4 514v-54.3h15.5V514h-15.5zm84.7-34.1V514h-15.5v-29.6c0-6.9-4-11.1-10.7-11.1-7.8.1-12.4 6-12.4 13.9V514H752v-54.3h15.5v9.5c3.8-6.8 10.3-10 18.8-10.1 12 0 19.8 8.1 19.8 20.8zm67 6.9c0 16.6-11.7 27.8-29.1 27.8-17.5 0-29.2-11.2-29.2-27.8 0-16.7 11.7-27.7 29.2-27.7 17.4.1 29.1 11.1 29.1 27.7zm-42.6.2c0 8.9 5.5 14.9 13.5 14.9s13.5-6.1 13.5-14.9-5.6-14.9-13.5-14.9c-8 0-13.5 6.1-13.5 14.9zm92.5-22l-5.3 10.6c-6-3.3-12-5.2-16.6-5.2-3.6 0-6.3 1.2-6.3 4 0 8.2 28.7 4 28.6 23.2 0 11.1-9.8 17-22.1 17-8.8 0-17.4-2.6-23.5-7.6l5-10.5c5.7 4.3 12.9 6.8 18.9 6.8 3.9 0 6.9-1.3 6.9-4.2 0-8.7-28.2-4-28.2-23.1 0-11.2 9.6-17 21.4-17 7.5 0 15.1 2.2 21.2 6z"/><path d="M800.5 556.5c0 2-1.4 3.4-3.3 3.4s-3.3-1.5-3.3-3.4c0-2 1.4-3.4 3.3-3.4s3.3 1.4 3.3 3.4zm25.7-15.4l-4.5 3.2c-1.2-1.5-3-2.5-5.3-2.5-3.2 0-5.5 2.5-5.5 6.2s2.3 6.3 5.5 6.3c2.4 0 4.2-.9 5.4-2.7l4.6 3.1c-1.9 3.2-5.5 5.1-10.3 5.1-7 0-11.8-4.7-11.8-11.7 0-7.1 4.8-11.9 11.9-11.9 4.4.1 7.9 1.8 10 4.9zm27.2 6.9c0 7-5 11.8-12.4 11.8s-12.4-4.8-12.4-11.8c0-7.1 5-11.8 12.4-11.8 7.4.1 12.4 4.7 12.4 11.8zm-18.2.1c0 3.8 2.3 6.4 5.8 6.4 3.4 0 5.8-2.6 5.8-6.4 0-3.8-2.4-6.4-5.8-6.4-3.4.1-5.8 2.6-5.8 6.4zm28.6 8.4c0 2-1.4 3.4-3.3 3.4s-3.3-1.5-3.3-3.4c0-2 1.4-3.4 3.3-3.4s3.3 1.4 3.3 3.4zm27.7 3.1H885v-4.1c-1.6 2.9-4.3 4.3-7.7 4.3-5.1 0-8.3-3.4-8.3-8.9v-14.5h6.6V549c0 2.9 1.7 4.7 4.3 4.7 3.2 0 5.1-2.5 5.1-5.9v-11.4h6.6v23.2zm14.1-6.3v6.3H899v-31.9h6.6v17.5l8.5-8.7h7.5l-8.5 8.9 8.9 14.2h-7.8l-5.6-9.4-3 3.1z" fill="#050607"/></svg>